# xmcd
#
# Track frame offsets:
#	150
#	18699
#	34444
#	59467
#	78952
#	100106
#	114922
#	135786
#	156141
#	180585
#	198401
#
# Disc length: 3008 seconds
#
# Revision: 0
# Processed by: cddbd v1.5PL3 Copyright (c) Steve Scherf et al.
# Submitted via: audiograbber 1.80
#
DISCID=860bbe0b
DTITLE=Pat Gossan Project - Hot Peppers in Gris-Grease
DYEAR=1900
DGENRE=
TTITLE0=Hard to Get Ahold Of
TTITLE1=Tell Me
TTITLE2=Hot Pepper
TTITLE3=Used to Be You
TTITLE4=Back Door Man
TTITLE5=Blue Moon Blues
TTITLE6=Tattooed Girl
TTITLE7=Temptation
TTITLE8=Be Your Man
TTITLE9=After the Tears
TTITLE10=Gotta Know
EXTD=
EXTT0=
EXTT1=
EXTT2=
EXTT3=
EXTT4=
EXTT5=
EXTT6=
EXTT7=
EXTT8=
EXTT9=
EXTT10=
PLAYORDER=
